<?xml version="1.0" encoding="UTF-8"?>
<!DOCTYPE svg PUBLIC "-//W3C//DTD SVG 1.1//EN" "http://www.w3.org/Graphics/SVG/1.1/DTD/svg11.dtd">
<!-- Creator: CorelDRAW -->
<svg xmlns="http://www.w3.org/2000/svg" xml:space="preserve" width="41.7441mm" height="82.8127mm" version="1.1" style="shape-rendering:geometricPrecision; text-rendering:geometricPrecision; image-rendering:optimizeQuality; fill-rule:evenodd; clip-rule:evenodd"
viewBox="0 0 2815.42 5585.28"
 xmlns:xlink="http://www.w3.org/1999/xlink"
 xmlns:xodm="http://www.corel.com/coreldraw/odm/2003">
 <defs>
  <style type="text/css">
   <![CDATA[
    .str0 {stroke:#332C2B;stroke-width:13.49;stroke-miterlimit:22.9256}
    .fil3 {fill:none}
    .fil0 {fill:#2563EB}
    .fil2 {fill:#72B9FD}
    .fil1 {fill:#9ED0FF}
    .fil4 {fill:url(#id5);fill-rule:nonzero}
   ]]>
  </style>
   <clipPath id="id0">
    <path d="M584.5 3734.04l371.49 -275.61c167.74,85.72 366.99,123.06 573.71,95.16 159.82,-21.58 304.99,-79.59 426.89,-163.54l665.07 860.9c242.67,314.14 83.33,801.47 -426.34,1206.13l-180.7 128.21 -1430.12 -1851.24zm2189.53 -1394.73l-527.8 0c-149.32,-286.41 -466.89,-484.12 -834.54,-484.12 -1.33,0 -2.65,0.04 -3.99,0.05l0 -1161.4c0,-396.95 424.03,-685.19 1074.75,-693.84l291.57 0 0 2339.31z"/>
   </clipPath>
     <clipPath id="id1">
      <path d="M2142.63 33.04l631.4 0 0 2306.27 -527.8 0c-149.32,-286.41 -466.89,-484.12 -834.54,-484.12 -1.33,0 -2.65,0.04 -3.99,0.05l0 -1161.4c0,-322.75 280.35,-573.63 734.92,-660.8zm222.08 3885.28l-1637.84 0 -142.36 -184.29 371.49 -275.61c167.74,85.72 366.99,123.06 573.71,95.16 159.82,-21.58 304.99,-79.59 426.89,-163.54l408.11 528.27z"/>
     </clipPath>
     <clipPath id="id2">
      <path d="M584.5 3734.04l371.49 -275.61c167.74,85.72 366.99,123.06 573.71,95.16 159.82,-21.58 304.99,-79.59 426.89,-163.54l665.07 860.9c242.67,314.14 83.33,801.47 -426.34,1206.13l-180.7 128.21 -1430.12 -1851.24zm2189.53 -1394.73l-527.8 0c-149.32,-286.41 -466.89,-484.12 -834.54,-484.12 -1.33,0 -2.65,0.04 -3.99,0.05l0 -1161.4c0,-396.95 424.03,-685.19 1074.75,-693.84l291.57 0 0 2339.31z"/>
     </clipPath>
     <clipPath id="id3">
      <path d="M1407.71 1440.75l1366.32 0 0 898.55 -527.8 0c-149.32,-286.41 -466.89,-484.12 -834.54,-484.12 -1.33,0 -2.65,0.04 -3.99,0.05l0 -414.48zm937.64 3885.28l-530.99 0 -1229.85 -1592 371.49 -275.61c167.74,85.72 366.99,123.06 573.71,95.16 159.82,-21.58 304.99,-79.59 426.89,-163.54l665.07 860.9c216.97,280.87 112.52,700.19 -276.31,1075.09z"/>
     </clipPath>
     <clipPath id="id4">
      <path d="M584.5 3734.04l371.49 -275.61c167.74,85.72 366.99,123.06 573.71,95.16 159.82,-21.58 304.99,-79.59 426.89,-163.54l665.07 860.9c242.67,314.14 83.33,801.47 -426.34,1206.13l-180.7 128.21 -1430.12 -1851.24zm2189.53 -1394.73l-527.8 0c-149.32,-286.41 -466.89,-484.12 -834.54,-484.12 -1.33,0 -2.65,0.04 -3.99,0.05l0 -1161.4c0,-396.95 424.03,-685.19 1074.75,-693.84l291.57 0 0 2339.31z"/>
     </clipPath>
  <linearGradient id="id5" gradientUnits="userSpaceOnUse" x1="477.54" y1="4745.44" x2="785.52" y2="5387.98">
   <stop offset="0" style="stop-opacity:1; stop-color:#72B9FD"/>
   <stop offset="1" style="stop-opacity:1; stop-color:#2C70DE"/>
  </linearGradient>
 </defs>
 <g id="Layer_x0020_1">
  <metadata id="CorelCorpID_0Corel-Layer"/>
  <g>
  </g>
  <g style="clip-path:url(#id0)">
   <g id="_1916268900992">
    <rect class="fil0 str0" x="-1610.12" y="3182.98" width="6014.09" height="3053.44"/>
    <rect class="fil1 str0" x="-1610.12" y="-565.38" width="6014.09" height="3053.44"/>
    <g>
    </g>
    <g style="clip-path:url(#id1)">
     <image x="-1238.79" y="33.04" width="5292.99" height="3885.28" xlink:href="Logo_Images\Logo_ImgID1.png"/>
    </g>
    <g style="clip-path:url(#id2)">
    </g>
    <path class="fil2" d="M1407.71 1271.83c777.46,0 1407.71,630.26 1407.71,1407.71l-2815.42 0c0,-777.46 630.25,-1407.71 1407.71,-1407.71z"/>
    <g>
    </g>
    <g style="clip-path:url(#id3)">
     <image x="-1238.79" y="1440.75" width="5292.99" height="3885.28" xlink:href="Logo_Images\Logo_ImgID2.png"/>
    </g>
    <g style="clip-path:url(#id4)">
    </g>
    <path class="fil2" d="M1407.71 4087.25c-777.46,0 -1407.71,-630.25 -1407.71,-1407.71l2815.42 0c0,777.46 -630.25,1407.71 -1407.71,1407.71z"/>
   </g>
  </g>
  <path class="fil3" d="M584.5 3734.04l371.49 -275.61c167.74,85.72 366.99,123.06 573.71,95.16 159.82,-21.58 304.99,-79.59 426.89,-163.54l665.07 860.9c242.67,314.14 83.33,801.47 -426.34,1206.13l-180.7 128.21 -1430.12 -1851.24zm2189.53 -1394.73l-527.8 0c-149.32,-286.41 -466.89,-484.12 -834.54,-484.12 -1.33,0 -2.65,0.04 -3.99,0.05l0 -1161.4c0,-396.95 424.03,-685.19 1074.75,-693.84l291.57 0 0 2339.31z"/>
  <path class="fil2" d="M1407.71 1271.83c777.46,0 1407.71,630.26 1407.71,1407.71 0,777.46 -630.25,1407.71 -1407.71,1407.71 -777.46,0 -1407.71,-630.25 -1407.71,-1407.71 0,-777.46 630.25,-1407.71 1407.71,-1407.71zm0 756.76c359.51,0 650.95,291.44 650.95,650.95 0,359.51 -291.44,650.95 -650.95,650.95 -359.51,0 -650.95,-291.44 -650.95,-650.95 0,-359.51 291.44,-650.95 650.95,-650.95z"/>
  <path class="fil4" d="M701.3 5356.66l0 -580.4 0 -90.41 73.95 0c22.3,0 40.49,7.38 54.39,22.3 13.89,14.92 20.93,37.57 20.93,68.11l0 580.4c0,30.54 -7.03,53.19 -20.93,68.28 -13.9,15.1 -32.08,22.65 -54.39,22.65 -3.24,0 -6.38,-0.18 -9.44,-0.52l-64.5 0 0 -90.41zm-139.56 0l0 -580.4 0 -90.41 -73.94 0c-22.3,0 -40.49,7.38 -54.39,22.3 -13.89,14.92 -20.93,37.57 -20.93,68.11l0 580.4c0,30.54 7.03,53.19 20.93,68.28 13.89,15.1 32.08,22.65 54.39,22.65 3.23,0 6.37,-0.18 9.44,-0.52l64.5 0 0 -90.41z"/>
 </g>
</svg>
